<svg width="180" height="19" viewBox="0 0 180 19" fill="none" xmlns="http://www.w3.org/2000/svg">
<path d="M10.4444 5.72222V1.94444C10.4444 1.69396 10.3449 1.45374 10.1678 1.27662C9.99071 1.0995 9.75048 1 9.5 1H1.94444C1.69396 1 1.45374 1.0995 1.27662 1.27662C1.0995 1.45374 1 1.69396 1 1.94444V17.0556C1 17.306 1.0995 17.5463 1.27662 17.7234C1.45374 17.9005 1.69396 18 1.94444 18H9.5C9.75048 18 9.99071 17.9005 10.1678 17.7234C10.3449 17.5463 10.4444 17.306 10.4444 17.0556V13.2778" stroke="#EF233C" stroke-width="2" stroke-linecap="round" stroke-linejoin="round"/>
<path d="M14.2227 13.2778L18.0004 9.50001L14.2227 5.72223M5.72266 9.50001H18.0004H5.72266Z" stroke="#EF233C" stroke-width="2" stroke-linecap="round" stroke-linejoin="round"/>
<path d="M29.0117 14V4.04688H32.4229C33.5485 4.04688 34.4053 4.27246 34.9932 4.72363C35.5811 5.1748 35.875 5.84701 35.875 6.74023C35.875 7.19596 35.752 7.60612 35.5059 7.9707C35.2598 8.33529 34.8997 8.61784 34.4258 8.81836C34.9635 8.96419 35.3783 9.23991 35.6699 9.64551C35.9661 10.0465 36.1143 10.5296 36.1143 11.0947C36.1143 12.029 35.8135 12.7467 35.2119 13.248C34.6149 13.7493 33.7581 14 32.6416 14H29.0117ZM30.7412 9.50879V12.6191H32.6621C33.2044 12.6191 33.6283 12.4847 33.9336 12.2158C34.2389 11.9469 34.3916 11.5732 34.3916 11.0947C34.3916 10.0602 33.863 9.53158 32.8057 9.50879H30.7412ZM30.7412 8.2373H32.4365C32.9743 8.2373 33.3936 8.11654 33.6943 7.875C33.9997 7.62891 34.1523 7.28255 34.1523 6.83594C34.1523 6.34375 34.0111 5.98828 33.7285 5.76953C33.4505 5.55078 33.0153 5.44141 32.4229 5.44141H30.7412V8.2373ZM39.7507 8.95508H41.3777C41.9838 8.95508 42.5124 9.0599 42.9636 9.26953C43.4148 9.47917 43.7566 9.77311 43.989 10.1514C44.226 10.5296 44.3445 10.9694 44.3445 11.4707C44.3445 12.2318 44.0756 12.8424 43.5378 13.3027C43.0001 13.763 42.2846 13.9954 41.3913 14H38.0896V6.60352H39.7507V8.95508ZM47.2361 14H45.5749V6.60352H47.2361V14ZM39.7507 10.2881V12.6738H41.3708C41.7764 12.6738 42.0954 12.5736 42.3279 12.373C42.5648 12.168 42.6833 11.8786 42.6833 11.5049C42.6833 11.1312 42.5671 10.8372 42.3347 10.623C42.1068 10.4043 41.7969 10.2926 41.405 10.2881H39.7507ZM54.1264 6.60352H55.7807V14H54.1264V9.06445L51.228 14H49.5737V6.60352H51.228V11.5391L54.1264 6.60352ZM54.9057 3.7666C54.9057 4.34082 54.7052 4.80566 54.3041 5.16113C53.9031 5.5166 53.3676 5.69434 52.6977 5.69434C52.0278 5.69434 51.4923 5.5166 51.0912 5.16113C50.6902 4.80566 50.4897 4.34082 50.4897 3.7666H51.7338C51.7338 4.06738 51.8181 4.30208 51.9868 4.4707C52.1599 4.63477 52.3969 4.7168 52.6977 4.7168C52.9985 4.7168 53.2332 4.63477 53.4018 4.4707C53.5704 4.30208 53.6547 4.06738 53.6547 3.7666H54.9057ZM63.6486 7.92285H61.2492V14H59.588V7.92285H57.216V6.60352H63.6486V7.92285ZM69.6571 6.60352H71.3114V14H69.6571V9.06445L66.7587 14H65.1044V6.60352H66.7587V11.5391L69.6571 6.60352ZM81.7425 6.60352H83.3968V14H81.7425V9.06445L78.8441 14H77.1898V6.60352H78.8441V11.5391L81.7425 6.60352ZM91.0459 8.62695C91.0459 8.95508 90.9457 9.25814 90.7452 9.53613C90.5492 9.80957 90.2712 10.0283 89.9112 10.1924C90.7588 10.4886 91.1827 11.0605 91.1827 11.9082C91.1827 12.5872 90.9069 13.1296 90.3555 13.5352C89.8041 13.9362 89.0658 14.1367 88.1407 14.1367C87.5756 14.1367 87.0606 14.0433 86.5957 13.8564C86.1309 13.665 85.7686 13.3962 85.5088 13.0498C85.2491 12.6989 85.1192 12.2842 85.1192 11.8057H86.7735C86.7735 12.1064 86.9079 12.3594 87.1768 12.5645C87.4457 12.765 87.7852 12.8652 88.1954 12.8652C88.6009 12.8652 88.9222 12.7718 89.1592 12.585C89.4008 12.3936 89.5215 12.1452 89.5215 11.8398C89.5215 11.4798 89.4167 11.2201 89.2071 11.0605C88.9974 10.901 88.6739 10.8213 88.2364 10.8213H87.0469V9.625H88.2774C89.0202 9.61589 89.3916 9.31055 89.3916 8.70898C89.3916 8.4082 89.2845 8.1735 89.0704 8.00488C88.8562 7.83626 88.5622 7.75195 88.1885 7.75195C87.8239 7.75195 87.5163 7.8431 87.2657 8.02539C87.015 8.20312 86.8897 8.42871 86.8897 8.70215H85.2354C85.2354 8.05046 85.5088 7.51725 86.0557 7.10254C86.6026 6.68327 87.2976 6.47363 88.1407 6.47363C89.0567 6.47363 89.7699 6.66048 90.2803 7.03418C90.7907 7.40788 91.0459 7.9388 91.0459 8.62695ZM101.06 14C100.987 13.8587 100.923 13.6286 100.869 13.3096C100.34 13.861 99.6928 14.1367 98.9272 14.1367C98.1844 14.1367 97.5783 13.9248 97.1089 13.501C96.6395 13.0771 96.4048 12.5531 96.4048 11.9287C96.4048 11.1403 96.6964 10.5365 97.2798 10.1172C97.8677 9.69336 98.7062 9.48145 99.7954 9.48145H100.814V8.99609C100.814 8.61328 100.707 8.30794 100.493 8.08008C100.278 7.84766 99.9526 7.73145 99.5151 7.73145C99.1369 7.73145 98.827 7.82715 98.5854 8.01855C98.3439 8.2054 98.2231 8.44466 98.2231 8.73633H96.562C96.562 8.33073 96.6964 7.95247 96.9653 7.60156C97.2342 7.24609 97.5988 6.9681 98.0591 6.76758C98.5239 6.56706 99.0412 6.4668 99.6108 6.4668C100.477 6.4668 101.167 6.68555 101.682 7.12305C102.197 7.55599 102.461 8.16667 102.475 8.95508V12.291C102.475 12.9564 102.568 13.4873 102.755 13.8838V14H101.06ZM99.2348 12.8037C99.563 12.8037 99.8706 12.724 100.158 12.5645C100.449 12.4049 100.668 12.1908 100.814 11.9219V10.5273H99.9184C99.3032 10.5273 98.8406 10.6344 98.5307 10.8486C98.2208 11.0628 98.0659 11.3659 98.0659 11.7578C98.0659 12.0768 98.1707 12.332 98.3803 12.5234C98.5945 12.7103 98.8794 12.8037 99.2348 12.8037ZM107.123 11.0742H106.282V14H104.621V6.60352H106.282V9.55664H107.014L109.058 6.60352H111.109L108.436 10.1445L111.334 14H109.174L107.123 11.0742ZM115.155 11.0742H114.314V14H112.653V6.60352H114.314V9.55664H115.046L117.09 6.60352H119.141L116.468 10.1445L119.366 14H117.206L115.155 11.0742ZM124.978 14C124.905 13.8587 124.841 13.6286 124.787 13.3096C124.258 13.861 123.611 14.1367 122.845 14.1367C122.103 14.1367 121.496 13.9248 121.027 13.501C120.558 13.0771 120.323 12.5531 120.323 11.9287C120.323 11.1403 120.615 10.5365 121.198 10.1172C121.786 9.69336 122.624 9.48145 123.714 9.48145H124.732V8.99609C124.732 8.61328 124.625 8.30794 124.411 8.08008C124.197 7.84766 123.871 7.73145 123.433 7.73145C123.055 7.73145 122.745 7.82715 122.504 8.01855C122.262 8.2054 122.141 8.44466 122.141 8.73633H120.48C120.48 8.33073 120.615 7.95247 120.883 7.60156C121.152 7.24609 121.517 6.9681 121.977 6.76758C122.442 6.56706 122.959 6.4668 123.529 6.4668C124.395 6.4668 125.085 6.68555 125.6 7.12305C126.115 7.55599 126.38 8.16667 126.393 8.95508V12.291C126.393 12.9564 126.487 13.4873 126.673 13.8838V14H124.978ZM123.153 12.8037C123.481 12.8037 123.789 12.724 124.076 12.5645C124.367 12.4049 124.586 12.1908 124.732 11.9219V10.5273H123.837C123.221 10.5273 122.759 10.6344 122.449 10.8486C122.139 11.0628 121.984 11.3659 121.984 11.7578C121.984 12.0768 122.089 12.332 122.298 12.5234C122.513 12.7103 122.798 12.8037 123.153 12.8037ZM130.891 11.6211L132.395 6.60352H134.165L131.226 15.1211C130.775 16.3652 130.009 16.9873 128.929 16.9873C128.688 16.9873 128.421 16.9463 128.129 16.8643V15.5791L128.444 15.5996C128.863 15.5996 129.177 15.5221 129.387 15.3672C129.601 15.2168 129.77 14.9616 129.893 14.6016L130.132 13.9658L127.535 6.60352H129.326L130.891 11.6211ZM141.671 14H140.01V11.0127H137.132V14H135.471V6.60352H137.132V9.68652H140.01V6.60352H141.671V14ZM149.546 7.92285H147.146V14H145.485V7.92285H143.113V6.60352H149.546V7.92285ZM155.247 14C155.174 13.8587 155.11 13.6286 155.055 13.3096C154.527 13.861 153.879 14.1367 153.114 14.1367C152.371 14.1367 151.765 13.9248 151.295 13.501C150.826 13.0771 150.591 12.5531 150.591 11.9287C150.591 11.1403 150.883 10.5365 151.466 10.1172C152.054 9.69336 152.893 9.48145 153.982 9.48145H155.001V8.99609C155.001 8.61328 154.893 8.30794 154.679 8.08008C154.465 7.84766 154.139 7.73145 153.702 7.73145C153.323 7.73145 153.014 7.82715 152.772 8.01855C152.53 8.2054 152.41 8.44466 152.41 8.73633H150.749C150.749 8.33073 150.883 7.95247 151.152 7.60156C151.421 7.24609 151.785 6.9681 152.246 6.76758C152.71 6.56706 153.228 6.4668 153.797 6.4668C154.663 6.4668 155.354 6.68555 155.869 7.12305C156.384 7.55599 156.648 8.16667 156.662 8.95508V12.291C156.662 12.9564 156.755 13.4873 156.942 13.8838V14H155.247ZM153.421 12.8037C153.75 12.8037 154.057 12.724 154.344 12.5645C154.636 12.4049 154.855 12.1908 155.001 11.9219V10.5273H154.105C153.49 10.5273 153.027 10.6344 152.717 10.8486C152.407 11.0628 152.252 11.3659 152.252 11.7578C152.252 12.0768 152.357 12.332 152.567 12.5234C152.781 12.7103 153.066 12.8037 153.421 12.8037Z" fill="#EF233C"/>
</svg>
