<svg width="97" height="26" viewBox="0 0 97 26" fill="none" xmlns="http://www.w3.org/2000/svg">
<path d="M18.4173 8.66667V5.41667C18.4173 5.12935 18.3032 4.8538 18.1 4.65064C17.8969 4.44747 17.6213 4.33334 17.334 4.33334H6.50065C5.92602 4.33334 5.37491 4.56161 4.96859 4.96794C4.56226 5.37427 4.33398 5.92537 4.33398 6.5M4.33398 6.5C4.33398 7.07464 4.56226 7.62574 4.96859 8.03207C5.37491 8.4384 5.92602 8.66667 6.50065 8.66667H19.5006C19.788 8.66667 20.0635 8.78081 20.2667 8.98397C20.4698 9.18713 20.584 9.46268 20.584 9.75V13M4.33398 6.5V19.5C4.33398 20.0746 4.56226 20.6257 4.96859 21.0321C5.37491 21.4384 5.92602 21.6667 6.50065 21.6667H19.5006C19.788 21.6667 20.0635 21.5525 20.2667 21.3494C20.4698 21.1462 20.584 20.8707 20.584 20.5833V17.3333" stroke="#161A1D" stroke-width="2" stroke-linecap="round" stroke-linejoin="round"/>
<path d="M21.666 13V17.3333H17.3327C16.758 17.3333 16.2069 17.1051 15.8006 16.6987C15.3943 16.2924 15.166 15.7413 15.166 15.1667C15.166 14.592 15.3943 14.0409 15.8006 13.6346C16.2069 13.2283 16.758 13 17.3327 13H21.666Z" stroke="#161A1D" stroke-width="2" stroke-linecap="round" stroke-linejoin="round"/>
<path d="M44.3438 9.21875H39.1016V11.9766H41.4297C42.263 11.9766 42.9896 12.1198 43.6094 12.4062C44.2292 12.6927 44.7005 13.099 45.0234 13.625C45.3464 14.151 45.5078 14.7604 45.5078 15.4531C45.5078 16.5156 45.1458 17.3698 44.4219 18.0156C43.7031 18.6615 42.7214 18.9896 41.4766 19H37.125V7.625H44.3438V9.21875ZM39.1016 13.5625V17.4219H41.4219C42.0885 17.4219 42.6068 17.2422 42.9766 16.8828C43.3516 16.5182 43.5391 16.0365 43.5391 15.4375C43.5391 14.8646 43.3568 14.4115 42.9922 14.0781C42.6276 13.7448 42.1224 13.5729 41.4766 13.5625H39.1016ZM52.4059 19C52.3226 18.8385 52.2497 18.5755 52.1872 18.2109C51.583 18.8411 50.8434 19.1562 49.9684 19.1562C49.1195 19.1562 48.4268 18.9141 47.8903 18.4297C47.3539 17.9453 47.0856 17.3464 47.0856 16.6328C47.0856 15.7318 47.419 15.0417 48.0856 14.5625C48.7575 14.0781 49.7158 13.8359 50.9606 13.8359H52.1247V13.2812C52.1247 12.8438 52.0023 12.4948 51.7575 12.2344C51.5127 11.9688 51.1403 11.8359 50.6403 11.8359C50.208 11.8359 49.8539 11.9453 49.5778 12.1641C49.3018 12.3776 49.1637 12.651 49.1637 12.9844H47.2653C47.2653 12.5208 47.419 12.0885 47.7262 11.6875C48.0335 11.2812 48.4502 10.9635 48.9762 10.7344C49.5075 10.5052 50.0986 10.3906 50.7497 10.3906C51.7393 10.3906 52.5283 10.6406 53.1169 11.1406C53.7054 11.6354 54.0075 12.3333 54.0231 13.2344V17.0469C54.0231 17.8073 54.1299 18.4141 54.3434 18.8672V19H52.4059ZM50.32 17.6328C50.695 17.6328 51.0466 17.5417 51.3747 17.3594C51.708 17.1771 51.958 16.9323 52.1247 16.625V15.0312H51.1012C50.3981 15.0312 49.8695 15.1536 49.5153 15.3984C49.1611 15.6432 48.9841 15.9896 48.9841 16.4375C48.9841 16.8021 49.1039 17.0938 49.3434 17.3125C49.5882 17.526 49.9137 17.6328 50.32 17.6328ZM63.515 10.5469V19H61.6166V12.0781H59.2259L59.0697 15.0234C58.9707 16.4401 58.6973 17.4583 58.2494 18.0781C57.8067 18.6927 57.127 19 56.2103 19H55.6244L55.6166 17.4219L56.0072 17.3828C56.4239 17.3255 56.7259 17.0729 56.9134 16.625C57.1061 16.1719 57.2285 15.349 57.2806 14.1562L57.4369 10.5469H63.515ZM70.9053 19C70.822 18.8385 70.7491 18.5755 70.6866 18.2109C70.0824 18.8411 69.3428 19.1562 68.4678 19.1562C67.6189 19.1562 66.9261 18.9141 66.3897 18.4297C65.8532 17.9453 65.585 17.3464 65.585 16.6328C65.585 15.7318 65.9183 15.0417 66.585 14.5625C67.2569 14.0781 68.2152 13.8359 69.46 13.8359H70.6241V13.2812C70.6241 12.8438 70.5017 12.4948 70.2569 12.2344C70.0121 11.9688 69.6397 11.8359 69.1397 11.8359C68.7074 11.8359 68.3532 11.9453 68.0772 12.1641C67.8011 12.3776 67.6631 12.651 67.6631 12.9844H65.7647C65.7647 12.5208 65.9183 12.0885 66.2256 11.6875C66.5329 11.2812 66.9496 10.9635 67.4756 10.7344C68.0069 10.5052 68.598 10.3906 69.2491 10.3906C70.2386 10.3906 71.0277 10.6406 71.6162 11.1406C72.2048 11.6354 72.5069 12.3333 72.5225 13.2344V17.0469C72.5225 17.8073 72.6293 18.4141 72.8428 18.8672V19H70.9053ZM68.8194 17.6328C69.1944 17.6328 69.5459 17.5417 69.8741 17.3594C70.2074 17.1771 70.4574 16.9323 70.6241 16.625V15.0312H69.6006C68.8975 15.0312 68.3689 15.1536 68.0147 15.3984C67.6605 15.6432 67.4834 15.9896 67.4834 16.4375C67.4834 16.8021 67.6032 17.0938 67.8428 17.3125C68.0876 17.526 68.4131 17.6328 68.8194 17.6328ZM81.9909 19H80.0925V15.5859H76.8034V19H74.905V10.5469H76.8034V14.0703H80.0925V10.5469H81.9909V19ZM87.8109 17.6406C88.2849 17.6406 88.6781 17.5026 88.9906 17.2266C89.3031 16.9505 89.4698 16.6094 89.4906 16.2031H91.2797C91.2589 16.7292 91.0948 17.2214 90.7875 17.6797C90.4802 18.1328 90.0635 18.4922 89.5375 18.7578C89.0115 19.0234 88.4437 19.1562 87.8344 19.1562C86.6521 19.1562 85.7146 18.7734 85.0219 18.0078C84.3292 17.2422 83.9828 16.1849 83.9828 14.8359V14.6406C83.9828 13.3542 84.3266 12.3255 85.0141 11.5547C85.7016 10.7786 86.6391 10.3906 87.8266 10.3906C88.8318 10.3906 89.6495 10.6849 90.2797 11.2734C90.9151 11.8568 91.2484 12.625 91.2797 13.5781H89.4906C89.4698 13.0938 89.3031 12.6953 88.9906 12.3828C88.6833 12.0703 88.2901 11.9141 87.8109 11.9141C87.1964 11.9141 86.7224 12.138 86.3891 12.5859C86.0557 13.0286 85.8865 13.7031 85.8812 14.6094V14.9141C85.8812 15.8307 86.0453 16.5156 86.3734 16.9688C86.7068 17.4167 87.1859 17.6406 87.8109 17.6406ZM94.1778 17C94.532 17 94.8054 17.1016 94.9981 17.3047C95.1908 17.5026 95.2872 17.7526 95.2872 18.0547C95.2872 18.3516 95.1908 18.599 94.9981 18.7969C94.8054 18.9896 94.532 19.0859 94.1778 19.0859C93.8393 19.0859 93.571 18.9896 93.3731 18.7969C93.1752 18.6042 93.0762 18.3568 93.0762 18.0547C93.0762 17.7526 93.1726 17.5026 93.3653 17.3047C93.558 17.1016 93.8289 17 94.1778 17ZM94.1778 10.3672C94.532 10.3672 94.8054 10.4688 94.9981 10.6719C95.1908 10.8698 95.2872 11.1198 95.2872 11.4219C95.2872 11.7188 95.1908 11.9661 94.9981 12.1641C94.8054 12.3568 94.532 12.4531 94.1778 12.4531C93.8393 12.4531 93.571 12.3568 93.3731 12.1641C93.1752 11.9714 93.0762 11.724 93.0762 11.4219C93.0762 11.1198 93.1726 10.8698 93.3653 10.6719C93.558 10.4688 93.8289 10.3672 94.1778 10.3672Z" fill="#161A1D"/>
</svg>
