<svg width="97" height="24" viewBox="0 0 97 24" fill="none" xmlns="http://www.w3.org/2000/svg">
<path d="M29.0117 17V7.04688H32.4229C33.5485 7.04688 34.4053 7.27246 34.9932 7.72363C35.5811 8.1748 35.875 8.84701 35.875 9.74023C35.875 10.196 35.752 10.6061 35.5059 10.9707C35.2598 11.3353 34.8997 11.6178 34.4258 11.8184C34.9635 11.9642 35.3783 12.2399 35.6699 12.6455C35.9661 13.0465 36.1143 13.5296 36.1143 14.0947C36.1143 15.029 35.8135 15.7467 35.2119 16.248C34.6149 16.7493 33.7581 17 32.6416 17H29.0117ZM30.7412 12.5088V15.6191H32.6621C33.2044 15.6191 33.6283 15.4847 33.9336 15.2158C34.2389 14.9469 34.3916 14.5732 34.3916 14.0947C34.3916 13.0602 33.863 12.5316 32.8057 12.5088H30.7412ZM30.7412 11.2373H32.4365C32.9743 11.2373 33.3936 11.1165 33.6943 10.875C33.9997 10.6289 34.1523 10.2826 34.1523 9.83594C34.1523 9.34375 34.0111 8.98828 33.7285 8.76953C33.4505 8.55078 33.0153 8.44141 32.4229 8.44141H30.7412V11.2373ZM40.9404 17.1367C39.8877 17.1367 39.0332 16.8063 38.377 16.1455C37.7253 15.4801 37.3994 14.596 37.3994 13.4932V13.2881C37.3994 12.5498 37.5407 11.8913 37.8232 11.3125C38.1104 10.7292 38.5114 10.2757 39.0264 9.95215C39.5413 9.62858 40.1156 9.4668 40.749 9.4668C41.7562 9.4668 42.5332 9.78809 43.0801 10.4307C43.6315 11.0732 43.9072 11.9824 43.9072 13.1582V13.8281H39.0742C39.1243 14.4388 39.3271 14.9219 39.6826 15.2773C40.0426 15.6328 40.4938 15.8105 41.0361 15.8105C41.7972 15.8105 42.417 15.5029 42.8955 14.8877L43.791 15.7422C43.4948 16.1842 43.0983 16.5283 42.6016 16.7744C42.1094 17.016 41.5557 17.1367 40.9404 17.1367ZM40.7422 10.7998C40.2865 10.7998 39.9173 10.9593 39.6348 11.2783C39.3568 11.5973 39.179 12.0417 39.1016 12.6113H42.2666V12.4883C42.2301 11.9323 42.082 11.513 41.8223 11.2305C41.5625 10.9434 41.2025 10.7998 40.7422 10.7998ZM51.6797 13.377C51.6797 14.5208 51.4199 15.4346 50.9004 16.1182C50.3809 16.7972 49.6836 17.1367 48.8086 17.1367C47.9974 17.1367 47.348 16.8701 46.8604 16.3369V19.8438H45.1992V9.60352H46.7305L46.7988 10.3555C47.2865 9.76302 47.9495 9.4668 48.7881 9.4668C49.6904 9.4668 50.3968 9.80404 50.9072 10.4785C51.4222 11.1484 51.6797 12.0804 51.6797 13.2744V13.377ZM50.0254 13.2334C50.0254 12.4951 49.8773 11.9095 49.5811 11.4766C49.2894 11.0436 48.8701 10.8271 48.3232 10.8271C47.6442 10.8271 47.1566 11.1074 46.8604 11.668V14.9492C47.1611 15.5234 47.6533 15.8105 48.3369 15.8105C48.8656 15.8105 49.278 15.5986 49.5742 15.1748C49.875 14.7464 50.0254 14.0993 50.0254 13.2334ZM59.3564 17H57.6953V14.0127H54.8174V17H53.1562V9.60352H54.8174V12.6865H57.6953V9.60352H59.3564V17ZM63.7178 14.6211L65.2217 9.60352H66.9922L64.0527 18.1211C63.6016 19.3652 62.8359 19.9873 61.7559 19.9873C61.5143 19.9873 61.2477 19.9463 60.9561 19.8643V18.5791L61.2705 18.5996C61.6898 18.5996 62.0042 18.5221 62.2139 18.3672C62.4281 18.2168 62.5967 17.9616 62.7197 17.6016L62.959 16.9658L60.3613 9.60352H62.1523L63.7178 14.6211ZM73.7734 10.9229H71.374V17H69.7129V10.9229H67.3408V9.60352H73.7734V10.9229ZM76.6719 11.9551H78.2988C78.9049 11.9551 79.4336 12.0599 79.8848 12.2695C80.3359 12.4792 80.6777 12.7731 80.9102 13.1514C81.1471 13.5296 81.2656 13.9694 81.2656 14.4707C81.2656 15.2318 80.9967 15.8424 80.459 16.3027C79.9212 16.763 79.2057 16.9954 78.3125 17H75.0107V9.60352H76.6719V11.9551ZM76.6719 13.2881V15.6738H78.292C78.6976 15.6738 79.0166 15.5736 79.249 15.373C79.486 15.168 79.6045 14.8786 79.6045 14.5049C79.6045 14.1312 79.4883 13.8372 79.2559 13.623C79.028 13.4043 78.7181 13.2926 78.3262 13.2881H76.6719ZM85.6338 15.8105C86.0485 15.8105 86.3926 15.6898 86.666 15.4482C86.9395 15.2067 87.0853 14.9082 87.1035 14.5527H88.6689C88.6507 15.013 88.5072 15.4437 88.2383 15.8447C87.9694 16.2412 87.6048 16.5557 87.1445 16.7881C86.6842 17.0205 86.1875 17.1367 85.6543 17.1367C84.6198 17.1367 83.7995 16.8018 83.1934 16.1318C82.5872 15.4619 82.2842 14.5368 82.2842 13.3564V13.1855C82.2842 12.0599 82.585 11.1598 83.1865 10.4854C83.7881 9.80632 84.6084 9.4668 85.6475 9.4668C86.527 9.4668 87.2425 9.72428 87.7939 10.2393C88.3499 10.7497 88.6416 11.4219 88.6689 12.2559H87.1035C87.0853 11.832 86.9395 11.4834 86.666 11.21C86.3971 10.9365 86.0531 10.7998 85.6338 10.7998C85.096 10.7998 84.6813 10.9958 84.3896 11.3877C84.098 11.7751 83.9499 12.3652 83.9453 13.1582V13.4248C83.9453 14.2269 84.0889 14.8262 84.376 15.2227C84.6676 15.6146 85.0869 15.8105 85.6338 15.8105ZM95.8467 9.60352V17H94.1924V14.2861H92.6406L91.0615 17H89.3389L91.082 14.0127C90.6263 13.8213 90.2754 13.5479 90.0293 13.1924C89.7878 12.8369 89.667 12.429 89.667 11.9688C89.667 11.2806 89.9313 10.7178 90.46 10.2803C90.9932 9.83822 91.7109 9.61263 92.6133 9.60352H95.8467ZM91.3281 12.0098C91.3281 12.3197 91.4421 12.5726 91.6699 12.7686C91.9023 12.96 92.1986 13.0557 92.5586 13.0557H94.1924V10.9229H92.6611C92.2555 10.9229 91.932 11.0254 91.6904 11.2305C91.4489 11.4355 91.3281 11.6953 91.3281 12.0098Z" fill="#999999"/>
<g clip-path="url(#clip0_133_900)">
<path d="M5 12H19" stroke="#999999" stroke-width="2" stroke-linecap="round" stroke-linejoin="round"/>
<path d="M5 12L9 16" stroke="#999999" stroke-width="2" stroke-linecap="round" stroke-linejoin="round"/>
<path d="M5 12L9 8.00003" stroke="#999999" stroke-width="2" stroke-linecap="round" stroke-linejoin="round"/>
</g>
<defs>
<clipPath id="clip0_133_900">
<rect width="24" height="24" fill="white"/>
</clipPath>
</defs>
</svg>
