<svg width="121" height="30" viewBox="0 0 121 30" fill="none" xmlns="http://www.w3.org/2000/svg">
<path d="M44.125 11.625H46.1016V23H44.125V14.8984L39.1328 23H37.1562V11.625H39.1328V19.7344L44.125 11.625ZM55.0075 16.8594C55.0075 17.2344 54.8929 17.5807 54.6637 17.8984C54.4398 18.2109 54.1221 18.4609 53.7106 18.6484C54.6794 18.987 55.1637 19.6406 55.1637 20.6094C55.1637 21.3854 54.8486 22.0052 54.2184 22.4688C53.5882 22.9271 52.7445 23.1562 51.6872 23.1562C51.0414 23.1562 50.4528 23.0495 49.9216 22.8359C49.3903 22.6172 48.9762 22.3099 48.6794 21.9141C48.3825 21.513 48.2341 21.0391 48.2341 20.4922H50.1247C50.1247 20.8359 50.2783 21.125 50.5856 21.3594C50.8929 21.5885 51.2809 21.7031 51.7497 21.7031C52.2132 21.7031 52.5804 21.5964 52.8512 21.3828C53.1273 21.1641 53.2653 20.8802 53.2653 20.5312C53.2653 20.1198 53.1455 19.8229 52.9059 19.6406C52.6664 19.4583 52.2966 19.3672 51.7966 19.3672H50.4372V18H51.8434C52.6924 17.9896 53.1169 17.6406 53.1169 16.9531C53.1169 16.6094 52.9945 16.3411 52.7497 16.1484C52.5049 15.9557 52.169 15.8594 51.7419 15.8594C51.3252 15.8594 50.9736 15.9635 50.6872 16.1719C50.4007 16.375 50.2575 16.6328 50.2575 16.9453H48.3669C48.3669 16.2005 48.6794 15.5911 49.3044 15.1172C49.9294 14.638 50.7236 14.3984 51.6872 14.3984C52.7341 14.3984 53.5492 14.612 54.1325 15.0391C54.7158 15.4661 55.0075 16.0729 55.0075 16.8594ZM61.0775 15.0156C62.14 15.0156 62.9916 15.3724 63.6322 16.0859C64.2728 16.7943 64.5931 17.7578 64.5931 18.9766V19.0703C64.5931 20.2891 64.2442 21.276 63.5462 22.0312C62.8535 22.7865 61.9108 23.1641 60.7181 23.1641C59.5567 23.1641 58.6192 22.7786 57.9056 22.0078C57.1921 21.237 56.8353 20.1849 56.8353 18.8516V18.3047C56.8353 16.4818 57.1582 15.0391 57.8041 13.9766C58.4499 12.9141 59.4134 12.25 60.6947 11.9844C61.4134 11.8385 61.877 11.6849 62.0853 11.5234C62.2989 11.3568 62.4056 11.1328 62.4056 10.8516H63.9369C63.9369 11.3776 63.8509 11.8047 63.6791 12.1328C63.5072 12.4609 63.2442 12.7292 62.89 12.9375C62.5358 13.1406 61.9265 13.3333 61.0619 13.5156C60.2702 13.6823 59.666 13.9792 59.2494 14.4062C58.8379 14.8333 58.5619 15.4245 58.4212 16.1797C59.1765 15.4036 60.0619 15.0156 61.0775 15.0156ZM60.7025 16.5391C60.0879 16.5391 59.6061 16.7474 59.2572 17.1641C58.9082 17.5755 58.7337 18.2109 58.7337 19.0703C58.7337 19.8828 58.9056 20.5156 59.2494 20.9688C59.5931 21.4219 60.0827 21.6484 60.7181 21.6484C61.3483 21.6484 61.8353 21.4219 62.1791 20.9688C62.528 20.5104 62.7025 19.8229 62.7025 18.9062C62.7025 18.1771 62.528 17.6016 62.1791 17.1797C61.8353 16.7526 61.3431 16.5391 60.7025 16.5391ZM73.6631 18.8594C73.6631 20.1667 73.3662 21.2109 72.7725 21.9922C72.1787 22.7682 71.3819 23.1562 70.3819 23.1562C69.4548 23.1562 68.7126 22.8516 68.1553 22.2422V26.25H66.2569V14.5469H68.0069L68.085 15.4062C68.6423 14.7292 69.4001 14.3906 70.3584 14.3906C71.3897 14.3906 72.197 14.776 72.7803 15.5469C73.3689 16.3125 73.6631 17.3776 73.6631 18.7422V18.8594ZM71.7725 18.6953C71.7725 17.8516 71.6032 17.1823 71.2647 16.6875C70.9314 16.1927 70.4522 15.9453 69.8272 15.9453C69.0511 15.9453 68.4939 16.2656 68.1553 16.9062V20.6562C68.4991 21.3125 69.0616 21.6406 69.8428 21.6406C70.447 21.6406 70.9183 21.3984 71.2569 20.9141C71.6006 20.4245 71.7725 19.6849 71.7725 18.6953ZM80.6472 23C80.5639 22.8385 80.4909 22.5755 80.4284 22.2109C79.8243 22.8411 79.0847 23.1562 78.2097 23.1562C77.3607 23.1562 76.668 22.9141 76.1316 22.4297C75.5951 21.9453 75.3269 21.3464 75.3269 20.6328C75.3269 19.7318 75.6602 19.0417 76.3269 18.5625C76.9987 18.0781 77.9571 17.8359 79.2019 17.8359H80.3659V17.2812C80.3659 16.8438 80.2435 16.4948 79.9987 16.2344C79.754 15.9688 79.3816 15.8359 78.8816 15.8359C78.4493 15.8359 78.0951 15.9453 77.8191 16.1641C77.543 16.3776 77.405 16.651 77.405 16.9844H75.5066C75.5066 16.5208 75.6602 16.0885 75.9675 15.6875C76.2748 15.2812 76.6915 14.9635 77.2175 14.7344C77.7487 14.5052 78.3399 14.3906 78.9909 14.3906C79.9805 14.3906 80.7696 14.6406 81.3581 15.1406C81.9467 15.6354 82.2487 16.3333 82.2644 17.2344V21.0469C82.2644 21.8073 82.3711 22.4141 82.5847 22.8672V23H80.6472ZM78.5612 21.6328C78.9362 21.6328 79.2878 21.5417 79.6159 21.3594C79.9493 21.1771 80.1993 20.9323 80.3659 20.625V19.0312H79.3425C78.6394 19.0312 78.1107 19.1536 77.7566 19.3984C77.4024 19.6432 77.2253 19.9896 77.2253 20.4375C77.2253 20.8021 77.3451 21.0938 77.5847 21.3125C77.8295 21.526 78.155 21.6328 78.5612 21.6328ZM91.7328 23H89.8344V19.5859H86.5453V23H84.6469V14.5469H86.5453V18.0703H89.8344V14.5469H91.7328V23ZM101.24 23H99.3419V19.5859H96.0528V23H94.1544V14.5469H96.0528V18.0703H99.3419V14.5469H101.24V23ZM103.232 18.6953C103.232 17.8672 103.396 17.1224 103.724 16.4609C104.052 15.7943 104.513 15.2839 105.107 14.9297C105.701 14.5703 106.383 14.3906 107.154 14.3906C108.295 14.3906 109.219 14.7578 109.927 15.4922C110.641 16.2266 111.026 17.2005 111.084 18.4141L111.092 18.8594C111.092 19.6927 110.93 20.4375 110.607 21.0938C110.289 21.75 109.831 22.2578 109.232 22.6172C108.638 22.9766 107.951 23.1562 107.17 23.1562C105.977 23.1562 105.021 22.7604 104.302 21.9688C103.589 21.1719 103.232 20.112 103.232 18.7891V18.6953ZM105.131 18.8594C105.131 19.7292 105.31 20.4115 105.67 20.9062C106.029 21.3958 106.529 21.6406 107.17 21.6406C107.81 21.6406 108.308 21.3906 108.662 20.8906C109.021 20.3906 109.201 19.6589 109.201 18.6953C109.201 17.8411 109.016 17.1641 108.646 16.6641C108.282 16.1641 107.784 15.9141 107.154 15.9141C106.534 15.9141 106.042 16.1615 105.677 16.6562C105.313 17.1458 105.131 17.8802 105.131 18.8594ZM116.74 23.1562C115.537 23.1562 114.56 22.7786 113.81 22.0234C113.065 21.263 112.693 20.2526 112.693 18.9922V18.7578C112.693 17.9141 112.854 17.1615 113.177 16.5C113.505 15.8333 113.964 15.3151 114.552 14.9453C115.141 14.5755 115.797 14.3906 116.521 14.3906C117.672 14.3906 118.56 14.7578 119.185 15.4922C119.815 16.2266 120.13 17.2656 120.13 18.6094V19.375H114.607C114.664 20.0729 114.896 20.625 115.302 21.0312C115.714 21.4375 116.229 21.6406 116.849 21.6406C117.719 21.6406 118.427 21.2891 118.974 20.5859L119.997 21.5625C119.659 22.0677 119.206 22.4609 118.638 22.7422C118.076 23.0182 117.443 23.1562 116.74 23.1562ZM116.513 15.9141C115.992 15.9141 115.57 16.0964 115.247 16.4609C114.93 16.8255 114.727 17.3333 114.638 17.9844H118.255V17.8438C118.214 17.2083 118.044 16.7292 117.747 16.4062C117.451 16.0781 117.039 15.9141 116.513 15.9141Z" fill="#161A1D"/>
<path d="M21.2009 9.89333C22.1939 10.8903 22.7514 12.24 22.7514 13.6471C22.7514 15.0542 22.1939 16.4039 21.2009 17.4008L13.0001 25.6667L4.79922 17.4008C4.06174 16.6584 3.55964 15.7149 3.3558 14.6884C3.15195 13.662 3.25541 12.5982 3.65322 11.6303C4.05103 10.6623 4.72552 9.83326 5.59225 9.24681C6.45898 8.66037 7.47944 8.34262 8.52589 8.33333C9.92517 8.34182 11.2645 8.90247 12.2526 9.89333C12.5407 10.1785 12.7919 10.4988 13.0001 10.8467C13.2082 10.4988 13.4594 10.1785 13.7476 9.89333C14.2344 9.39939 14.8145 9.00716 15.4543 8.73943C16.0941 8.47171 16.7807 8.33384 17.4742 8.33384C18.1677 8.33384 18.8544 8.47171 19.4941 8.73943C20.1339 9.00716 20.7141 9.39939 21.2009 9.89333V9.89333Z" stroke="#161A1D" stroke-width="2" stroke-linecap="round" stroke-linejoin="round"/>
<rect x="16" width="14" height="14" rx="2" fill="#FCA311"/>
<path d="M25.2637 4.5498L22.4219 11H21.1768L24.0137 4.84277H20.3369V3.89062H25.2637V4.5498Z" fill="black"/>
</svg>
