<svg width="25" height="25" viewBox="0 0 25 25" fill="none" xmlns="http://www.w3.org/2000/svg">
<path d="M10.6771 3.125C6.51543 3.125 3.125 6.51544 3.125 10.6771C3.125 14.8387 6.51543 18.2292 10.6771 18.2292C12.4773 18.2292 14.1321 17.5933 15.4317 16.5365L20.5414 21.6461C20.6134 21.7211 20.6996 21.781 20.795 21.8222C20.8904 21.8634 20.9931 21.8852 21.097 21.8863C21.201 21.8873 21.3041 21.8676 21.4003 21.8283C21.4965 21.7891 21.584 21.731 21.6575 21.6575C21.731 21.584 21.7891 21.4965 21.8283 21.4003C21.8676 21.3041 21.8873 21.201 21.8863 21.097C21.8852 20.9931 21.8634 20.8904 21.8222 20.795C21.781 20.6996 21.7211 20.6134 21.6461 20.5414L16.5365 15.4317C17.5933 14.1321 18.2292 12.4773 18.2292 10.6771C18.2292 6.51544 14.8387 3.125 10.6771 3.125ZM10.6771 4.6875C13.9943 4.6875 16.6667 7.35987 16.6667 10.6771C16.6667 12.293 16.0293 13.753 14.9953 14.8285C14.9316 14.8753 14.8753 14.9316 14.8285 14.9953C13.753 16.0293 12.293 16.6667 10.6771 16.6667C7.35987 16.6667 4.6875 13.9943 4.6875 10.6771C4.6875 7.35987 7.35987 4.6875 10.6771 4.6875Z" fill="#5D5D5D"/>
</svg>
