<svg width="168" height="26" viewBox="0 0 168 26" fill="none" xmlns="http://www.w3.org/2000/svg">
<path d="M39.7188 7.625L43 16.3438L46.2734 7.625H48.8281V19H46.8594V15.25L47.0547 10.2344L43.6953 19H42.2812L38.9297 10.2422L39.125 15.25V19H37.1562V7.625H39.7188ZM50.9528 14.6953C50.9528 13.8672 51.1169 13.1224 51.445 12.4609C51.7731 11.7943 52.2341 11.2839 52.8278 10.9297C53.4216 10.5703 54.1039 10.3906 54.8747 10.3906C56.0153 10.3906 56.9398 10.7578 57.6481 11.4922C58.3617 12.2266 58.7471 13.2005 58.8044 14.4141L58.8122 14.8594C58.8122 15.6927 58.6507 16.4375 58.3278 17.0938C58.0101 17.75 57.5518 18.2578 56.9528 18.6172C56.3591 18.9766 55.6716 19.1562 54.8903 19.1562C53.6976 19.1562 52.7419 18.7604 52.0231 17.9688C51.3096 17.1719 50.9528 16.112 50.9528 14.7891V14.6953ZM52.8512 14.8594C52.8512 15.7292 53.0309 16.4115 53.3903 16.9062C53.7497 17.3958 54.2497 17.6406 54.8903 17.6406C55.5309 17.6406 56.0283 17.3906 56.3825 16.8906C56.7419 16.3906 56.9216 15.6589 56.9216 14.6953C56.9216 13.8411 56.7367 13.1641 56.3669 12.6641C56.0023 12.1641 55.5049 11.9141 54.8747 11.9141C54.2549 11.9141 53.7627 12.1615 53.3981 12.6562C53.0335 13.1458 52.8512 13.8802 52.8512 14.8594ZM66.015 10.5469H67.9056V19H66.015V13.3594L62.7025 19H60.8119V10.5469H62.7025V16.1875L66.015 10.5469ZM74.1941 14.6953C74.1941 13.8672 74.3581 13.1224 74.6862 12.4609C75.0144 11.7943 75.4753 11.2839 76.0691 10.9297C76.6628 10.5703 77.3451 10.3906 78.1159 10.3906C79.2566 10.3906 80.181 10.7578 80.8894 11.4922C81.6029 12.2266 81.9883 13.2005 82.0456 14.4141L82.0534 14.8594C82.0534 15.6927 81.892 16.4375 81.5691 17.0938C81.2514 17.75 80.793 18.2578 80.1941 18.6172C79.6003 18.9766 78.9128 19.1562 78.1316 19.1562C76.9389 19.1562 75.9831 18.7604 75.2644 17.9688C74.5508 17.1719 74.1941 16.112 74.1941 14.7891V14.6953ZM76.0925 14.8594C76.0925 15.7292 76.2722 16.4115 76.6316 16.9062C76.9909 17.3958 77.4909 17.6406 78.1316 17.6406C78.7722 17.6406 79.2696 17.3906 79.6237 16.8906C79.9831 16.3906 80.1628 15.6589 80.1628 14.6953C80.1628 13.8411 79.9779 13.1641 79.6081 12.6641C79.2435 12.1641 78.7461 11.9141 78.1159 11.9141C77.4961 11.9141 77.004 12.1615 76.6394 12.6562C76.2748 13.1458 76.0925 13.8802 76.0925 14.8594ZM87.9594 11.0156C89.0219 11.0156 89.8734 11.3724 90.5141 12.0859C91.1547 12.7943 91.475 13.7578 91.475 14.9766V15.0703C91.475 16.2891 91.126 17.276 90.4281 18.0312C89.7354 18.7865 88.7927 19.1641 87.6 19.1641C86.4385 19.1641 85.501 18.7786 84.7875 18.0078C84.074 17.237 83.7172 16.1849 83.7172 14.8516V14.3047C83.7172 12.4818 84.0401 11.0391 84.6859 9.97656C85.3318 8.91406 86.2953 8.25 87.5766 7.98438C88.2953 7.83854 88.7589 7.6849 88.9672 7.52344C89.1807 7.35677 89.2875 7.13281 89.2875 6.85156H90.8187C90.8187 7.3776 90.7328 7.80469 90.5609 8.13281C90.3891 8.46094 90.126 8.72917 89.7719 8.9375C89.4177 9.14062 88.8083 9.33333 87.9437 9.51562C87.1521 9.68229 86.5479 9.97917 86.1312 10.4062C85.7198 10.8333 85.4437 11.4245 85.3031 12.1797C86.0583 11.4036 86.9437 11.0156 87.9594 11.0156ZM87.5844 12.5391C86.9698 12.5391 86.488 12.7474 86.1391 13.1641C85.7901 13.5755 85.6156 14.2109 85.6156 15.0703C85.6156 15.8828 85.7875 16.5156 86.1312 16.9688C86.475 17.4219 86.9646 17.6484 87.6 17.6484C88.2302 17.6484 88.7172 17.4219 89.0609 16.9688C89.4099 16.5104 89.5844 15.8229 89.5844 14.9062C89.5844 14.1771 89.4099 13.6016 89.0609 13.1797C88.7172 12.7526 88.225 12.5391 87.5844 12.5391ZM96.8887 13.2344H98.7481C99.4408 13.2344 100.045 13.3542 100.561 13.5938C101.076 13.8333 101.467 14.1693 101.732 14.6016C102.003 15.0339 102.139 15.5365 102.139 16.1094C102.139 16.9792 101.831 17.6771 101.217 18.2031C100.602 18.7292 99.7846 18.9948 98.7637 19H94.9903V12.0781H92.5528V10.5469H96.8887V13.2344ZM96.8887 14.7578V17.4844H98.7403C99.2039 17.4844 99.5684 17.3698 99.8341 17.1406C100.105 16.9062 100.24 16.5755 100.24 16.1484C100.24 15.7214 100.107 15.3854 99.8419 15.1406C99.5815 14.8906 99.2273 14.763 98.7794 14.7578H96.8887ZM110.56 10.5469V19H108.67V15.8984H106.896L105.092 19H103.123L105.115 15.5859C104.594 15.3672 104.193 15.0547 103.912 14.6484C103.636 14.2422 103.498 13.776 103.498 13.25C103.498 12.4635 103.8 11.8203 104.404 11.3203C105.013 10.8151 105.834 10.5573 106.865 10.5469H110.56ZM105.396 13.2969C105.396 13.651 105.526 13.9401 105.787 14.1641C106.052 14.3828 106.391 14.4922 106.802 14.4922H108.67V12.0547H106.92C106.456 12.0547 106.086 12.1719 105.81 12.4062C105.534 12.6406 105.396 12.9375 105.396 13.2969ZM113.13 19V10.5469H116.56C117.716 10.5469 118.596 10.75 119.201 11.1562C119.805 11.5573 120.107 12.1354 120.107 12.8906C120.107 13.2812 119.984 13.6328 119.74 13.9453C119.5 14.2526 119.143 14.4896 118.669 14.6562C119.221 14.7708 119.659 15.0026 119.982 15.3516C120.305 15.7005 120.466 16.112 120.466 16.5859C120.466 17.3724 120.175 17.9714 119.591 18.3828C119.013 18.7943 118.18 19 117.091 19H113.13ZM115.029 15.3984V17.5H117.107C118.081 17.5 118.568 17.151 118.568 16.4531C118.568 15.75 118.073 15.3984 117.083 15.3984H115.029ZM115.029 14.0391H116.591C117.669 14.0391 118.208 13.7214 118.208 13.0859C118.208 12.4193 117.698 12.0755 116.677 12.0547H115.029V14.0391ZM129.614 10.5469V19H127.716V12.0781H125.325L125.169 15.0234C125.07 16.4401 124.797 17.4583 124.349 18.0781C123.906 18.6927 123.226 19 122.31 19H121.724L121.716 17.4219L122.107 17.3828C122.523 17.3255 122.825 17.0729 123.013 16.625C123.206 16.1719 123.328 15.349 123.38 14.1562L123.536 10.5469H129.614ZM135.677 19.1562C134.473 19.1562 133.497 18.7786 132.747 18.0234C132.002 17.263 131.63 16.2526 131.63 14.9922V14.7578C131.63 13.9141 131.791 13.1615 132.114 12.5C132.442 11.8333 132.901 11.3151 133.489 10.9453C134.078 10.5755 134.734 10.3906 135.458 10.3906C136.609 10.3906 137.497 10.7578 138.122 11.4922C138.752 12.2266 139.067 13.2656 139.067 14.6094V15.375H133.544C133.601 16.0729 133.833 16.625 134.239 17.0312C134.651 17.4375 135.166 17.6406 135.786 17.6406C136.656 17.6406 137.364 17.2891 137.911 16.5859L138.934 17.5625C138.596 18.0677 138.143 18.4609 137.575 18.7422C137.012 19.0182 136.38 19.1562 135.677 19.1562ZM135.45 11.9141C134.929 11.9141 134.507 12.0964 134.184 12.4609C133.867 12.8255 133.664 13.3333 133.575 13.9844H137.192V13.8438C137.151 13.2083 136.981 12.7292 136.684 12.4062C136.387 12.0781 135.976 11.9141 135.45 11.9141ZM148.028 19H146.129V15.5859H142.84V19H140.942V10.5469H142.84V14.0703H146.129V10.5469H148.028V19ZM155.652 10.5469H157.543V19H155.652V13.3594L152.34 19H150.449V10.5469H152.34V16.1875L155.652 10.5469ZM166.652 10.5469V19H164.762V15.8984H162.988L161.183 19H159.215L161.207 15.5859C160.686 15.3672 160.285 15.0547 160.004 14.6484C159.728 14.2422 159.59 13.776 159.59 13.25C159.59 12.4635 159.892 11.8203 160.496 11.3203C161.105 10.8151 161.926 10.5573 162.957 10.5469H166.652ZM161.488 13.2969C161.488 13.651 161.618 13.9401 161.879 14.1641C162.144 14.3828 162.483 14.4922 162.894 14.4922H164.762V12.0547H163.012C162.548 12.0547 162.178 12.1719 161.902 12.4062C161.626 12.6406 161.488 12.9375 161.488 13.2969Z" fill="#161A1D"/>
<path d="M19.4993 4.33334C19.7867 4.33334 20.0622 4.44747 20.2654 4.65064C20.4685 4.8538 20.5827 5.12935 20.5827 5.41667V21.6667C20.5827 21.954 20.4685 22.2295 20.2654 22.4327C20.0622 22.6359 19.7867 22.75 19.4993 22.75H6.49935C6.21203 22.75 5.93648 22.6359 5.73332 22.4327C5.53015 22.2295 5.41602 21.954 5.41602 21.6667V5.41667C5.41602 5.12935 5.53015 4.8538 5.73332 4.65064C5.93648 4.44747 6.21203 4.33334 6.49935 4.33334" stroke="#161A1D" stroke-width="2" stroke-linecap="round" stroke-linejoin="round"/>
<path d="M15.1667 3.25H10.8333C10.235 3.25 9.75 3.73502 9.75 4.33333V5.41667C9.75 6.01498 10.235 6.5 10.8333 6.5H15.1667C15.765 6.5 16.25 6.01498 16.25 5.41667V4.33333C16.25 3.73502 15.765 3.25 15.1667 3.25Z" stroke="#161A1D" stroke-width="2" stroke-linecap="round" stroke-linejoin="round"/>
<path d="M9.75 11.9167H16.25" stroke="#161A1D" stroke-width="2" stroke-linecap="round" stroke-linejoin="round"/>
<path d="M9.75 16.25H16.25" stroke="#161A1D" stroke-width="2" stroke-linecap="round" stroke-linejoin="round"/>
</svg>
