<svg width="142" height="26" viewBox="0 0 142 26" fill="none" xmlns="http://www.w3.org/2000/svg">
<path d="M39.7188 7.625L43 16.3438L46.2734 7.625H48.8281V19H46.8594V15.25L47.0547 10.2344L43.6953 19H42.2812L38.9297 10.2422L39.125 15.25V19H37.1562V7.625H39.7188ZM50.9528 14.6953C50.9528 13.8672 51.1169 13.1224 51.445 12.4609C51.7731 11.7943 52.2341 11.2839 52.8278 10.9297C53.4216 10.5703 54.1039 10.3906 54.8747 10.3906C56.0153 10.3906 56.9398 10.7578 57.6481 11.4922C58.3617 12.2266 58.7471 13.2005 58.8044 14.4141L58.8122 14.8594C58.8122 15.6927 58.6507 16.4375 58.3278 17.0938C58.0101 17.75 57.5518 18.2578 56.9528 18.6172C56.3591 18.9766 55.6716 19.1562 54.8903 19.1562C53.6976 19.1562 52.7419 18.7604 52.0231 17.9688C51.3096 17.1719 50.9528 16.112 50.9528 14.7891V14.6953ZM52.8512 14.8594C52.8512 15.7292 53.0309 16.4115 53.3903 16.9062C53.7497 17.3958 54.2497 17.6406 54.8903 17.6406C55.5309 17.6406 56.0283 17.3906 56.3825 16.8906C56.7419 16.3906 56.9216 15.6589 56.9216 14.6953C56.9216 13.8411 56.7367 13.1641 56.3669 12.6641C56.0023 12.1641 55.5049 11.9141 54.8747 11.9141C54.2549 11.9141 53.7627 12.1615 53.3981 12.6562C53.0335 13.1458 52.8512 13.8802 52.8512 14.8594ZM66.015 10.5469H67.9056V19H66.015V13.3594L62.7025 19H60.8119V10.5469H62.7025V16.1875L66.015 10.5469ZM66.9056 7.30469C66.9056 7.96094 66.6765 8.49219 66.2181 8.89844C65.7598 9.30469 65.1478 9.50781 64.3822 9.50781C63.6166 9.50781 63.0046 9.30469 62.5462 8.89844C62.0879 8.49219 61.8587 7.96094 61.8587 7.30469H63.2806C63.2806 7.64844 63.377 7.91667 63.5697 8.10938C63.7676 8.29688 64.0384 8.39062 64.3822 8.39062C64.7259 8.39062 64.9942 8.29688 65.1869 8.10938C65.3796 7.91667 65.4759 7.64844 65.4759 7.30469H66.9056ZM81.7175 19H79.8191V12.0781H76.5222V19H74.6237V10.5469H81.7175V19ZM91.4594 14.8594C91.4594 16.1667 91.1625 17.2109 90.5687 17.9922C89.975 18.7682 89.1781 19.1562 88.1781 19.1562C87.251 19.1562 86.5089 18.8516 85.9516 18.2422V22.25H84.0531V10.5469H85.8031L85.8812 11.4062C86.4385 10.7292 87.1964 10.3906 88.1547 10.3906C89.1859 10.3906 89.9932 10.776 90.5766 11.5469C91.1651 12.3125 91.4594 13.3776 91.4594 14.7422V14.8594ZM89.5687 14.6953C89.5687 13.8516 89.3995 13.1823 89.0609 12.6875C88.7276 12.1927 88.2484 11.9453 87.6234 11.9453C86.8474 11.9453 86.2901 12.2656 85.9516 12.9062V16.6562C86.2953 17.3125 86.8578 17.6406 87.6391 17.6406C88.2432 17.6406 88.7146 17.3984 89.0531 16.9141C89.3969 16.4245 89.5687 15.6849 89.5687 14.6953ZM93.0372 14.6953C93.0372 13.8672 93.2012 13.1224 93.5294 12.4609C93.8575 11.7943 94.3184 11.2839 94.9122 10.9297C95.5059 10.5703 96.1882 10.3906 96.9591 10.3906C98.0997 10.3906 99.0242 10.7578 99.7325 11.4922C100.446 12.2266 100.831 13.2005 100.889 14.4141L100.897 14.8594C100.897 15.6927 100.735 16.4375 100.412 17.0938C100.094 17.75 99.6361 18.2578 99.0372 18.6172C98.4434 18.9766 97.7559 19.1562 96.9747 19.1562C95.782 19.1562 94.8262 18.7604 94.1075 17.9688C93.394 17.1719 93.0372 16.112 93.0372 14.7891V14.6953ZM94.9356 14.8594C94.9356 15.7292 95.1153 16.4115 95.4747 16.9062C95.8341 17.3958 96.3341 17.6406 96.9747 17.6406C97.6153 17.6406 98.1127 17.3906 98.4669 16.8906C98.8262 16.3906 99.0059 15.6589 99.0059 14.6953C99.0059 13.8411 98.821 13.1641 98.4512 12.6641C98.0867 12.1641 97.5893 11.9141 96.9591 11.9141C96.3393 11.9141 95.8471 12.1615 95.4825 12.6562C95.1179 13.1458 94.9356 13.8802 94.9356 14.8594ZM102.506 14.8906C102.506 13.5104 102.776 12.4167 103.318 11.6094C103.865 10.7969 104.625 10.3906 105.599 10.3906C105.995 10.3906 106.355 10.4635 106.677 10.6094V7H108.568V10.6406C108.901 10.474 109.292 10.3906 109.74 10.3906C110.709 10.3906 111.467 10.7943 112.013 11.6016C112.566 12.4036 112.842 13.5547 112.842 15.0547C112.842 16.3203 112.566 17.3203 112.013 18.0547C111.461 18.7891 110.709 19.1562 109.756 19.1562C109.323 19.1562 108.927 19.0781 108.568 18.9219V22.25H106.677V18.9531C106.36 19.0885 105.995 19.1562 105.584 19.1562C104.672 19.1562 103.943 18.8203 103.396 18.1484C102.855 17.4714 102.56 16.5417 102.513 15.3594L102.506 14.8906ZM110.943 14.8906C110.943 13.9427 110.792 13.2109 110.49 12.6953C110.188 12.1745 109.761 11.9141 109.209 11.9141C108.974 11.9141 108.761 11.9479 108.568 12.0156V17.5625C108.74 17.6146 108.959 17.6406 109.224 17.6406C110.37 17.6406 110.943 16.724 110.943 14.8906ZM104.396 15.0547C104.396 15.8984 104.537 16.5417 104.818 16.9844C105.099 17.4219 105.516 17.6406 106.068 17.6406C106.302 17.6406 106.506 17.6146 106.677 17.5625V11.9922C106.5 11.9401 106.302 11.9141 106.084 11.9141C105.542 11.9141 105.125 12.1667 104.834 12.6719C104.542 13.1719 104.396 13.9661 104.396 15.0547ZM120.076 10.5469H121.966V19H120.076V13.3594L116.763 19H114.872V10.5469H116.763V16.1875L120.076 10.5469ZM131.489 10.5469V19H129.591V12.0781H127.2L127.044 15.0234C126.945 16.4401 126.672 17.4583 126.224 18.0781C125.781 18.6927 125.101 19 124.185 19H123.599L123.591 17.4219L123.982 17.3828C124.398 17.3255 124.7 17.0729 124.888 16.625C125.081 16.1719 125.203 15.349 125.255 14.1562L125.411 10.5469H131.489ZM135.872 13.2344H137.731C138.424 13.2344 139.028 13.3542 139.544 13.5938C140.059 13.8333 140.45 14.1693 140.716 14.6016C140.986 15.0339 141.122 15.5365 141.122 16.1094C141.122 16.9792 140.815 17.6771 140.2 18.2031C139.585 18.7292 138.768 18.9948 137.747 19H133.973V10.5469H135.872V13.2344ZM135.872 14.7578V17.4844H137.723C138.187 17.4844 138.552 17.3698 138.817 17.1406C139.088 16.9062 139.223 16.5755 139.223 16.1484C139.223 15.7214 139.091 15.3854 138.825 15.1406C138.565 14.8906 138.21 14.763 137.762 14.7578H135.872Z" fill="#161A1D"/>
<path d="M17 7.33333C17 8.19039 16.7459 9.02819 16.2697 9.7408C15.7935 10.4534 15.1168 11.0088 14.325 11.3368C13.5331 11.6648 12.6619 11.7506 11.8213 11.5834C10.9807 11.4162 10.2086 11.0035 9.60254 10.3975C8.99651 9.79144 8.5838 9.01931 8.4166 8.17872C8.24939 7.33814 8.33521 6.46685 8.66319 5.67504C8.99117 4.88323 9.54658 4.20645 10.2592 3.7303C10.9718 3.25415 11.8096 3 12.6667 3C13.8159 3 14.9181 3.45655 15.7308 4.2692C16.5435 5.08186 17 6.18406 17 7.33333ZM15.9167 16H9.41667C7.98008 16 6.60233 16.5707 5.5865 17.5865C4.57068 18.6023 4 19.9801 4 21.4167V21.4167C4 21.704 4.11414 21.9795 4.3173 22.1827C4.52047 22.3859 4.79602 22.5 5.08333 22.5H20.25C20.5373 22.5 20.8129 22.3859 21.016 22.1827C21.2192 21.9795 21.3333 21.704 21.3333 21.4167C21.3333 19.9801 20.7627 18.6023 19.7468 17.5865C18.731 16.5707 17.3533 16 15.9167 16Z" stroke="#161A1D" stroke-width="2" stroke-linecap="round" stroke-linejoin="round"/>
</svg>
