<svg width="20" height="22" viewBox="0 0 20 22" fill="none" xmlns="http://www.w3.org/2000/svg">
<path d="M14.3333 5.58333C14.3333 6.44039 14.0792 7.27819 13.603 7.9908C13.1269 8.70342 12.4501 9.25883 11.6583 9.58681C10.8665 9.91479 9.99517 10.0006 9.15459 9.8334C8.314 9.6662 7.54188 9.25349 6.93585 8.64746C6.32982 8.04144 5.91711 7.26931 5.74991 6.42872C5.58271 5.58814 5.66852 4.71685 5.9965 3.92504C6.32448 3.13323 6.8799 2.45645 7.59251 1.9803C8.30512 1.50415 9.14293 1.25 9.99998 1.25C11.1493 1.25 12.2515 1.70655 13.0641 2.5192C13.8768 3.33186 14.3333 4.43406 14.3333 5.58333ZM13.25 14.25H6.74998C5.31339 14.25 3.93564 14.8207 2.91982 15.8365C1.904 16.8523 1.33331 18.2301 1.33331 19.6667V19.6667C1.33331 19.954 1.44745 20.2295 1.65061 20.4327C1.85378 20.6359 2.12933 20.75 2.41665 20.75H17.5833C17.8706 20.75 18.1462 20.6359 18.3493 20.4327C18.5525 20.2295 18.6666 19.954 18.6666 19.6667C18.6666 18.2301 18.096 16.8523 17.0801 15.8365C16.0643 14.8207 14.6866 14.25 13.25 14.25Z" stroke="#161A1D" stroke-width="2" stroke-linecap="round" stroke-linejoin="round"/>
</svg>
