<svg width="22" height="23" viewBox="0 0 22 23" fill="none" xmlns="http://www.w3.org/2000/svg">
<path d="M4.31665 14.9571C6.14839 14.9571 7.6333 13.4338 7.6333 11.5548C7.6333 9.6758 6.14839 8.15256 4.31665 8.15256C2.48492 8.15256 1 9.6758 1 11.5548C1 13.4338 2.48492 14.9571 4.31665 14.9571Z" stroke="#161A1D" stroke-width="2" stroke-linecap="round" stroke-linejoin="round"/>
<path d="M17.5833 8.15259C19.415 8.15259 20.8999 6.62934 20.8999 4.75032C20.8999 2.8713 19.415 1.34805 17.5833 1.34805C15.7515 1.34805 14.2666 2.8713 14.2666 4.75032C14.2666 6.62934 15.7515 8.15259 17.5833 8.15259Z" stroke="#161A1D" stroke-width="2" stroke-linecap="round" stroke-linejoin="round"/>
<path d="M17.5833 21.7616C19.415 21.7616 20.8999 20.2384 20.8999 18.3593C20.8999 16.4803 19.415 14.9571 17.5833 14.9571C15.7515 14.9571 14.2666 16.4803 14.2666 18.3593C14.2666 20.2384 15.7515 21.7616 17.5833 21.7616Z" stroke="#161A1D" stroke-width="2" stroke-linecap="round" stroke-linejoin="round"/>
<path d="M7.30176 10.0805L14.5984 6.22464" stroke="#161A1D" stroke-width="2" stroke-linecap="round" stroke-linejoin="round"/>
<path d="M7.30176 13.0291L14.5984 16.885" stroke="#161A1D" stroke-width="2" stroke-linecap="round" stroke-linejoin="round"/>
</svg>
